<?xml version='1.0' encoding='UTF-8'?>
<svg xmlns="http://www.w3.org/2000/svg" version="1.1" width="512" height="708" viewBox="135 95 235 325" role="img" aria-label="Sleeper Caffeine robot mascot drinking coffee" preserveAspectRatio="xMidYMid meet" shape-rendering="geometricPrecision">
  <title>Sleeper Caffeine robot mascot drinking coffee</title>
  <desc>An isolated robot mascot holding a coffee cup, with no badge circle, lettering, or sparkles.</desc>
  <g id="mascot">
    <path id="face-plate" fill="#0A1927" d="M201 226 C218 221 235 223 252 223 C269 223 286 221 303 226 C315 230 321 243 321 259 C321 278 313 292 299 301 C286 309 269 313 252 313 C235 313 218 309 205 301 C191 292 185 277 186 259 C187 243 190 231 201 226 Z"/>
    <path d="M0 0 C3.9 2.294 5.336 3.727 7.188 7.875 C7.972 13.312 7.886 17.502 5.375 22.438 C3.188 24.875 3.188 24.875 0.188 26.875 C-0.803 26.875 -1.793 26.875 -2.812 26.875 C-2.648 29.185 -2.648 29.185 -1.812 40.875 C-0.018 40.978 1.776 41.081 3.625 41.188 C9.275 41.682 13.985 42.645 19.188 44.875 C20.247 45.326 21.307 45.777 22.398 46.242 C40.778 54.722 52.683 67.986 60.188 86.875 C61.901 91.685 63.188 95.745 63.188 100.875 C63.786 100.937 64.384 100.999 65 101.062 C68.24 102.266 68.751 103.744 70.188 106.875 C70.646 109.987 70.652 113.046 70.625 116.188 C70.645 117.004 70.665 117.821 70.686 118.662 C70.681 124.456 69.687 129.148 66.188 133.875 C64.545 134.915 62.88 135.92 61.188 136.875 C59.816 139.512 59.816 139.512 58.75 142.562 C55.181 151.734 49.916 158.937 41.188 163.875 C38.558 164.41 36.878 164.276 34.188 163.875 C33.754 162.967 33.321 162.06 32.875 161.125 C31.476 158.431 30.035 156.255 28.188 153.875 C28.973 153.523 29.758 153.171 30.566 152.809 C42.017 147.428 47.734 141.776 52.27 130.086 C54.591 121.966 54.518 112.324 50.438 104.801 C50.231 104.483 50.231 104.483 49.188 102.875 C48.775 102.229 48.363 101.583 47.938 100.918 C44.166 95.829 39.339 93.23 33.188 91.875 C27.942 91.538 22.811 91.95 17.606 92.587 C0.647 94.66 -16.656 94.992 -33.555 92.336 C-42.259 91.104 -50.446 90.508 -57.812 95.875 C-62.79 100.061 -66.612 105.376 -67.812 111.875 C-68.574 123.506 -67.474 133.201 -60.613 142.836 C-55.841 148.24 -49.448 151.334 -42.812 153.875 C-43.234 154.311 -43.656 154.746 -44.09 155.195 C-47.576 158.985 -49.551 161.521 -49.812 166.875 C-62.389 161.387 -69.223 152.774 -74.812 140.5 C-76.667 136.612 -79.232 135.237 -82.812 132.875 C-85.886 127.286 -86.276 122.554 -86.188 116.25 C-86.193 115.834 -86.193 115.834 -86.223 113.727 C-86.2 109.01 -85.971 105.65 -82.812 101.875 C-82.153 101.875 -81.493 101.875 -80.812 101.875 C-80.812 107.485 -80.812 113.095 -80.812 118.875 C-80.153 118.875 -79.493 118.875 -78.812 118.875 C-78.836 117.752 -78.859 116.629 -78.883 115.473 C-79.109 100.12 -79.109 100.12 -76.812 92.875 C-76.684 92.416 -76.684 92.416 -76.035 90.094 C-70.617 72.05 -59 58.234 -42.812 48.875 C-33.096 43.815 -23.708 41.002 -12.812 39.875 C-12.483 35.585 -12.153 31.295 -11.812 26.875 C-13.463 26.215 -15.113 25.555 -16.812 24.875 C-20.017 22.098 -21.468 20.455 -22.371 16.316 C-22.747 10.788 -22.09 7.499 -18.438 3.25 C-12.925 -2.308 -7.331 -2.163 0 0 Z " fill="#EDECEB" transform="translate(260.8125,143.125)"/>
    <path d="M0 0 C2.071 0.016 4.141 0 6.212 -0.019 C16.489 -0.035 27.078 0.841 36.007 6.391 C37.269 8.916 37.105 10.703 37.069 13.516 C37.06 14.426 37.051 15.336 37.042 16.274 C37.03 16.973 37.019 17.671 37.007 18.391 C37.587 18.068 38.167 17.744 38.764 17.411 C43.255 15.369 47.616 15.918 52.132 17.454 C56.65 20.499 60.267 24.172 62.007 29.391 C62.654 35.735 61.152 40.924 58.007 46.391 C54.303 50.597 50.406 53.733 45.007 55.391 C41.675 55.586 41.675 55.586 38.194 55.516 C37.033 55.498 35.871 55.48 34.675 55.461 C33.794 55.438 32.914 55.415 32.007 55.391 C31.677 56.484 31.347 57.577 31.007 58.704 C29.535 62.076 29.011 62.389 25.507 64.266 C20.404 65.77 15.303 66.18 10.007 66.391 C8.712 66.444 7.418 66.497 6.085 66.551 C-4.007 66.823 -16.25 66.998 -25.345 62.133 C-28.944 58.329 -29.072 52.368 -29.993 47.391 C-30.06 47.056 -30.06 47.056 -30.396 45.36 C-32.182 36.332 -33.396 27.253 -34.118 18.079 C-34.213 17.189 -34.308 16.3 -34.406 15.383 C-34.561 12.884 -34.558 10.831 -33.993 8.391 C-25.74 -0.544 -11.333 -0.105 0 0 Z " fill="#EFEDEB" transform="translate(250.993408203125,297.60888671875)"/>
    <path d="M0 0 C-1.814 3.845 -4.14 7.201 -6.562 10.684 C-10.673 17.308 -11.256 24.575 -9.5 32.16 C-7.887 36.331 -5.195 38.977 -2 42 C-2 42.66 -2 43.32 -2 44 C-2.701 44.026 -3.403 44.052 -4.125 44.078 C-12.148 44.558 -17.578 46.122 -23.75 51.312 C-31.03 60.008 -31.649 67.908 -31 79 C-29.692 87.016 -26.164 94.527 -19.855 99.789 C-15.474 102.82 -10.967 105.098 -6 107 C-6.422 107.436 -6.843 107.871 -7.277 108.32 C-10.764 112.11 -12.739 114.646 -13 120 C-25.576 114.512 -32.411 105.899 -38 93.625 C-39.855 89.737 -42.419 88.362 -46 86 C-49.073 80.411 -49.464 75.679 -49.375 69.375 C-49.381 68.959 -49.381 68.959 -49.41 66.852 C-49.388 62.135 -49.159 58.775 -46 55 C-45.34 55 -44.68 55 -44 55 C-44 60.61 -44 66.22 -44 72 C-43.34 72 -42.68 72 -42 72 C-42.023 70.877 -42.046 69.754 -42.07 68.598 C-42.297 53.245 -42.297 53.245 -40 46 C-39.743 45.082 -39.487 44.164 -39.223 43.219 C-33.493 24.137 -20.887 10.319 -3.707 0.719 C-2 0 -2 0 0 0 Z " fill="#C2C8D1" transform="translate(224,190)"/>
    <path d="M0 0 C0.33 0.99 0.66 1.98 1 3 C1.825 2.691 2.65 2.381 3.5 2.062 C11.742 -0.44 20.239 -0.217 28.781 -0.24 C30.929 -0.25 33.077 -0.281 35.225 -0.312 C50.707 -0.435 50.707 -0.435 56 3 C57.226 5.108 57.226 5.108 58 7 C57.67 7.33 57.34 7.66 57 8 C55.124 7.909 53.252 7.753 51.383 7.57 C43.869 6.932 36.413 6.852 28.875 6.875 C28.235 6.873 28.235 6.873 24.996 6.863 C18.345 6.87 11.869 7.079 5.274 7.981 C2.647 8.003 1.227 7.341 -1 6 C0 9 0 9 3.062 10.688 C3.547 10.904 3.547 10.904 6 12 C6 12.66 6 13.32 6 14 C6.66 14.33 7.32 14.66 8 15 C8.347 16.787 8.347 16.787 8.492 19.129 C8.555 19.992 8.618 20.855 8.683 21.744 C8.746 22.674 8.81 23.604 8.875 24.562 C9.89 36.942 11.64 48.17 18 59 C18 59.66 18 60.32 18 61 C6.238 60.314 6.238 60.314 1 57 C-5.03 43.762 -6.096 27.612 -7.062 13.25 C-7.137 12.376 -7.211 11.502 -7.288 10.601 C-7.403 8.288 -7.446 6.272 -7 4 C-3.309 0 -3.309 0 0 0 Z " fill="#DADCE0" transform="translate(224,302)"/>
    <path d="M0 0 C1.111 1.207 2.165 2.467 3.188 3.75 C5.613 6.683 7.33 8.335 10.875 9.688 C14 12 14 12 14.555 14.602 C14.69 16.821 14.776 19.043 14.824 21.266 C15.075 26.593 16.239 31.587 17.379 36.785 C18 40 18 40 18 44 C11.4 42.367 6.079 40.638 1 36 C0.562 33.188 0.562 33.188 1 31 C0.34 31 -0.32 31 -1 31 C-1.193 26.176 -0.757 22.504 1 18 C-2.059 20.511 -2.752 22.901 -3.688 26.688 C-3.939 27.681 -4.19 28.675 -4.449 29.699 C-4.631 30.458 -4.813 31.218 -5 32 C-9.828 30.513 -12.749 27.787 -16.312 24.375 C-16.862 23.859 -17.412 23.344 -17.979 22.812 C-19.325 21.548 -20.663 20.275 -22 19 C-18.926 10.726 -14.053 4.798 -6 1 C-3.884 0.371 -2.207 0 0 0 Z " fill="#22364E" transform="translate(198,312)"/>
    <path d="M0 0 C6.027 -0.369 10.64 -0.153 16 3 C19.528 6.619 20.293 9.591 20.5 14.5 C20.308 19.364 19.495 22.41 16 26 C13.25 26.875 13.25 26.875 11 27 C10.67 26.34 10.34 25.68 10 25 C8.969 24.959 7.938 24.917 6.875 24.875 C2.024 23.78 0.345 21.929 -2.68 18.117 C-4.523 15.161 -4.653 13.409 -4 10 C-3.417 7.624 -2.747 5.334 -2 3 C-1.34 3 -0.68 3 0 3 C0 2.01 0 1.02 0 0 Z " fill="#F0EEEC" transform="translate(248,142)"/>
    <path d="M0 0 C0.664 0.084 1.328 0.168 2.012 0.254 C2.895 0.356 3.778 0.458 4.688 0.562 C5.123 0.615 5.123 0.615 7.324 0.879 C10 1 10 1 12.255 0.516 C15.42 -0.079 18.374 -0.13 21.594 -0.133 C22.873 -0.134 24.151 -0.135 25.469 -0.137 C26.133 -0.135 26.796 -0.133 27.48 -0.13 C29.466 -0.125 31.452 -0.131 33.438 -0.137 C41.671 -0.128 49.802 0.236 58 1 C58 1.99 58 2.98 58 4 C48.269 8.46 39.852 9.341 29.188 9.312 C27.98 9.329 26.773 9.345 25.529 9.361 C16.855 9.366 6.721 9.274 0 3 C0 2.01 0 1.02 0 0 Z " fill="#1A191D" transform="translate(223,308)"/>
    <path d="M0 0 C5.649 0.505 9.762 2.05 14.75 4.688 C15.442 5.043 16.133 5.399 16.846 5.766 C22.614 8.749 28.332 11.83 34 15 C33.688 16.875 33.688 16.875 33 19 C27.687 22.542 20.733 21.608 14.578 20.605 C7.576 18.502 4.596 12.767 1.125 6.75 C0 4 0 4 0 0 Z " fill="#01B0BD" transform="translate(207,255)"/>
    <path d="M0 0 C2.625 1.875 2.625 1.875 4 5 C4.785 10.021 4.558 13.82 2.375 18.438 C-0.75 21.809 -3.458 23.748 -8.129 24.211 C-10.087 24.246 -12.046 24.132 -14 24 C-14.33 23.67 -14.66 23.34 -15 23 C-14.862 18.32 -14.412 13.663 -14 9 C-13.938 8.203 -13.876 7.407 -13.812 6.586 C-13.625 4.75 -13.625 4.75 -13 2 C-8.756 -0.829 -4.98 -0.758 0 0 Z " fill="#111C2B" transform="translate(300,322)"/>
    <path d="M0 0 C-0.327 6.21 -3.274 11.172 -7 16 C-9.297 17.825 -11.283 18.798 -14 20 C-14.66 20.33 -15.32 20.66 -16 21 C-18.288 21.149 -20.582 21.221 -22.875 21.25 C-24.11 21.276 -25.345 21.302 -26.617 21.328 C-30.149 20.986 -31.477 20.409 -34 18 C-31.917 12.243 -26.176 10.419 -21.07 7.717 C-19.261 6.756 -17.466 5.77 -15.672 4.781 C-14.527 4.168 -13.382 3.554 -12.203 2.922 C-11.158 2.361 -10.113 1.8 -9.036 1.222 C-5.783 -0.087 -3.472 -0.243 0 0 Z " fill="#01ADBC" transform="translate(300,255)"/>
    <path d="M0 0 C2.122 0.003 4.242 -0.02 6.364 -0.046 C21.665 -0.121 21.665 -0.121 26.993 3.316 C28.22 5.424 28.22 5.424 28.993 7.316 C28.663 7.646 28.333 7.976 27.993 8.316 C26.117 8.225 24.244 8.068 22.375 7.886 C14.861 7.248 7.405 7.168 -0.132 7.191 C-0.772 7.189 -0.772 7.189 -4.011 7.179 C-10.679 7.186 -17.133 7.401 -23.733 8.394 C-26.66 8.293 -27.864 7.232 -30.007 5.316 C-21.761 -0.94 -9.876 -0.031 0 0 Z " fill="#C5C9D0" transform="translate(253.00732421875,301.684326171875)"/>
    <path d="M0 0 C7.058 0.353 11.692 4.505 16.312 9.5 C18.198 12.293 19.792 14.846 21 18 C19.728 22.082 16.495 24.526 13.375 27.25 C12.859 27.709 12.344 28.168 11.812 28.641 C10.547 29.766 9.274 30.884 8 32 C7.34 31.67 6.68 31.34 6 31 C6.33 30.257 6.66 29.515 7 28.75 C8.778 22.081 9.314 14.92 6.25 8.562 C4.448 5.48 2.353 2.689 0 0 Z " fill="#263B52" transform="translate(310,311)"/>
    <path d="M0 0 C0 0.66 0 1.32 0 2 C-0.66 2 -1.32 2 -2 2 C-3.83 13.064 -3.83 13.064 -1.977 17.387 C0.763 20.844 2.512 21.882 6.875 22.938 C7.391 22.948 7.391 22.948 10 23 C10.33 23.99 10.66 24.98 11 26 C11.66 26.33 12.32 26.66 13 27 C12.01 27 11.02 27 10 27 C10 29.97 10 32.94 10 36 C9.67 36 9.34 36 9 36 C8.835 35.175 8.835 35.175 8 31 C6.35 31 4.7 31 3 31 C2.835 31.825 2.835 31.825 2 36 C1.67 36 1.34 36 1 36 C1 33.03 1 30.06 1 27 C0.639 26.897 0.639 26.897 -1.188 26.375 C-4.839 24.59 -7.216 22.633 -9 19 C-10.073 14.087 -10.144 9.889 -7.492 5.512 C-2.813 0 -2.813 0 0 0 Z " fill="#D6D8DE" transform="translate(248,143)"/>
    <path d="M0 0 C3.785 0.752 3.785 0.752 5.723 2.98 C7.487 7.151 7.476 10.829 7.438 15.312 C7.457 16.129 7.477 16.946 7.498 17.787 C7.493 23.554 6.435 28.263 3 33 C0.25 34.5 0.25 34.5 -2 35 C-1.934 34.43 -1.869 33.861 -1.801 33.274 C-1.029 26.147 -0.691 19.037 -0.438 11.875 C-0.416 11.301 -0.416 11.301 -0.307 8.398 C-0.202 5.599 -0.1 2.8 0 0 Z " fill="#8F99A8" transform="translate(324,244)"/>
    <path d="M0 0 C0.66 0 1.32 0 2 0 C2 5.61 2 11.22 2 17 C2.66 17 3.32 17 4 17 C4 11.39 4 5.78 4 0 C4.33 0 4.66 0 5 0 C5.025 0.705 5.05 1.41 5.076 2.136 C5.193 5.383 5.315 8.629 5.438 11.875 C5.477 12.984 5.516 14.092 5.557 15.234 C5.81 21.857 6.241 28.416 7 35 C1.848 33.127 0.04 31.066 -2.193 26.318 C-3.582 22.329 -3.54 18.497 -3.438 14.312 C-3.445 13.484 -3.452 12.656 -3.459 11.803 C-3.41 7.111 -3.129 3.756 0 0 Z " fill="#687586" transform="translate(178,245)"/>
    <path d="M0 0 C0.455 0.097 0.455 0.097 2.758 0.59 C3.456 0.746 4.155 0.902 4.875 1.062 C5.205 2.053 5.535 3.042 5.875 4.062 C6.535 4.393 7.195 4.722 7.875 5.062 C6.885 5.062 5.895 5.062 4.875 5.062 C4.875 8.032 4.875 11.002 4.875 14.062 C4.545 14.062 4.215 14.062 3.875 14.062 C3.545 12.412 3.215 10.762 2.875 9.062 C1.225 9.062 -0.425 9.062 -2.125 9.062 C-2.455 10.713 -2.785 12.363 -3.125 14.062 C-3.455 14.062 -3.785 14.062 -4.125 14.062 C-4.125 11.093 -4.125 8.123 -4.125 5.062 C-5.445 4.732 -6.765 4.403 -8.125 4.062 C-7.75 2.125 -7.75 2.125 -7.125 0.062 C-4.403 -1.298 -2.942 -0.641 0 0 Z " fill="#AFB6C2" transform="translate(253.125,164.9375)"/>
    <path d="M0 0 C0.66 0 1.32 0 2 0 C2 9.57 2 19.14 2 29 C-2.802 24.198 -2.183 19.954 -2.188 13.562 C-2.2 12.703 -2.212 11.844 -2.225 10.959 C-2.227 10.128 -2.228 9.297 -2.23 8.441 C-2.235 7.685 -2.239 6.929 -2.243 6.151 C-1.969 3.729 -1.203 2.102 0 0 Z " fill="#D6DAE2" transform="translate(177,246)"/>
    <path d="M0 0 C0.66 0 1.32 0 2 0 C1.912 2.71 1.806 5.417 1.688 8.125 C1.665 8.886 1.642 9.646 1.619 10.43 C1.388 15.31 0.557 18.709 -2 23 C-2.99 23 -3.98 23 -5 23 C-4.483 17.832 -3.849 12.697 -3.062 7.562 C-2.909 6.553 -2.756 5.544 -2.598 4.504 C-2 2 -2 2 0 0 Z " fill="#34414E" transform="translate(277,327)"/>
    <path d="M0 0 C1.938 0.25 1.938 0.25 4 1 C6 4 6 4 5.812 7 C4.989 10.039 4.593 11.272 2 13 C0.68 13 -0.64 13 -2 13 C-1.86 11.02 -1.713 9.041 -1.562 7.062 C-1.481 5.96 -1.4 4.858 -1.316 3.723 C-1 1 -1 1 0 0 Z " fill="#1C2F43" transform="translate(294,327)"/>
    <path d="M0 0 C0.99 0 1.98 0 3 0 C3.087 3.771 3.14 7.541 3.188 11.312 C3.213 12.384 3.238 13.456 3.264 14.561 C3.273 15.589 3.283 16.617 3.293 17.676 C3.309 18.624 3.324 19.572 3.341 20.548 C3 23 3 23 0 26 C0 17.42 0 8.84 0 0 Z " fill="#7B8798" transform="translate(324,244)"/>
    <path d="M0 0 C0.66 0.33 1.32 0.66 2 1 C1.67 1.33 1.34 1.66 1 2 C0.84 3.33 0.722 4.664 0.625 6 C-0.024 12.462 -2.016 18.252 -5 24 C-5.33 23.34 -5.66 22.68 -6 22 C-6.66 21.67 -7.32 21.34 -8 21 C-7.549 19.539 -7.089 18.082 -6.625 16.625 C-6.37 15.813 -6.115 15.001 -5.852 14.164 C-5 12 -5 12 -3 10 C-2.656 8.125 -2.656 8.125 -2.5 6 C-2.222 2.222 -2.222 2.222 0 0 Z " fill="#DADCE0" transform="translate(319,258)"/>
    <path d="M0 0 C6.6 0 13.2 0 20 0 C17 3 17 3 13.75 3.398 C12.512 3.391 11.275 3.383 10 3.375 C8.762 3.383 7.525 3.39 6.25 3.398 C3 3 3 3 0 0 Z " fill="#F3F2EF" transform="translate(244,298)"/>
    <path d="M0 0 C3 3 3 3 3.293 6.137 C3.258 7.308 3.223 8.48 3.188 9.688 C3.16 10.867 3.133 12.046 3.105 13.262 C3.071 14.165 3.036 15.069 3 16 C2.01 16.33 1.02 16.66 0 17 C0 11.39 0 5.78 0 0 Z " fill="#E4E5E8" transform="translate(328,247)"/>
    <path d="M0 0 C0.66 0.33 1.32 0.66 2 1 C2.843 3.979 3.15 6.91 3 10 C1.188 12.062 1.188 12.062 -1 13 C-1.66 13 -2.32 13 -3 13 C-2.886 11.395 -2.758 9.791 -2.625 8.188 C-2.555 7.294 -2.486 6.401 -2.414 5.48 C-2 3 -2 3 0 0 Z " fill="#8C97A8" transform="translate(325,266)"/>
    <path d="M0 0 C1.062 1.812 1.062 1.812 2 4 C1 7 1 7 -2 9 C-4.188 8.625 -4.188 8.625 -6 8 C-5.651 4.745 -4.979 3.981 -2.438 1.75 C-1.633 1.173 -0.829 0.595 0 0 Z " fill="#0E161F" transform="translate(299,336)"/>
    <path d="M0 0 C4.29 0.66 8.58 1.32 13 2 C9 6 9 6 6.5 6.438 C3.54 5.92 2.119 5.119 0 3 C0 2.01 0 1.02 0 0 Z " fill="#1F242E" transform="translate(223,308)"/>
    <path d="M0 0 C0.99 0 1.98 0 3 0 C3 4.29 3 8.58 3 13 C-0.541 9.459 -0.652 7.871 -1 3 C-0.67 2.01 -0.34 1.02 0 0 Z " fill="#A7B0BF" transform="translate(176,262)"/>
    <path d="M0 0 C0.99 0.66 1.98 1.32 3 2 C3.677 8.316 2.486 14.149 0 20 C-0.66 20.33 -1.32 20.66 -2 21 C-1.847 20.346 -1.693 19.693 -1.535 19.02 C-0.866 15.245 -0.646 11.511 -0.438 7.688 C-0.394 6.947 -0.351 6.206 -0.307 5.443 C-0.201 3.629 -0.1 1.815 0 0 Z " fill="#2D3847" transform="translate(331,253)"/>
    <path d="M0 0 C-1.359 1.984 -1.359 1.984 -4 4 C-7.425 4.513 -10.796 4.376 -14.25 4.25 C-15.186 4.232 -16.122 4.214 -17.086 4.195 C-19.392 4.148 -21.695 4.083 -24 4 C-24 3.67 -24 3.34 -24 3 C-23.44 2.976 -23.44 2.976 -20.605 2.852 C-19.133 2.777 -17.66 2.701 -16.188 2.625 C-15.45 2.594 -14.712 2.563 -13.951 2.531 C-8.67 2.244 -5.217 -0.282 0 0 Z " fill="#E1E2E4" transform="translate(269,298)"/>
    <path d="M0 0 C0.33 0.99 0.66 1.98 1 3 C2.65 3 4.3 3 6 3 C5.67 4.32 5.34 5.64 5 7 C4.01 6.67 3.02 6.34 2 6 C1.34 7.32 0.68 8.64 0 10 C-1.642 6.717 -0.519 3.575 0 0 Z " fill="#D3D6DC" transform="translate(250,171)"/>
    <path d="M0 0 C0.66 0 1.32 0 2 0 C1.913 1.439 1.804 2.876 1.688 4.312 C1.629 5.113 1.571 5.914 1.512 6.738 C0.918 9.363 0.042 10.308 -2 12 C-1.86 10.187 -1.713 8.375 -1.562 6.562 C-1.481 5.553 -1.4 4.544 -1.316 3.504 C-1 1 -1 1 0 0 Z " fill="#AAB2BF" transform="translate(329,263)"/>
    <path d="M0 0 C0 0.66 0 1.32 0 2 C-0.66 2 -1.32 2 -2 2 C-2 3.65 -2 5.3 -2 7 C-3.32 6.67 -4.64 6.34 -6 6 C-6.66 7.32 -7.32 8.64 -8 10 C-7.615 5.509 -5.145 0 0 0 Z " fill="#E2E2E4" transform="translate(248,143)"/>
    <path d="M0 0 C0.33 0.99 0.66 1.98 1 3 C0.01 3.33 -0.98 3.66 -2 4 C-2.309 4.825 -2.619 5.65 -2.938 6.5 C-3.288 7.325 -3.639 8.15 -4 9 C-6.066 9.656 -6.066 9.656 -8 10 C-7.044 8.707 -6.085 7.416 -5.125 6.125 C-4.591 5.406 -4.058 4.686 -3.508 3.945 C-2 2 -2 2 0 0 Z " fill="#B8BDC7" transform="translate(203,203)"/>
    <path d="M0 0 C1.65 0 3.3 0 5 0 C5.33 0.99 5.66 1.98 6 3 C6.66 3.33 7.32 3.66 8 4 C7.01 4 6.02 4 5 4 C5 6.97 5 9.94 5 13 C4.67 13 4.34 13 4 13 C3.963 12.229 3.925 11.458 3.887 10.664 C3.821 9.661 3.755 8.658 3.688 7.625 C3.629 6.627 3.571 5.63 3.512 4.602 C3.343 3.743 3.174 2.885 3 2 C2.01 1.34 1.02 0.68 0 0 Z " fill="#ADB1B9" transform="translate(253,166)"/>
    <path d="M0 0 C0.66 0 1.32 0 2 0 C2 2.31 2 4.62 2 7 C0.68 6.67 -0.64 6.34 -2 6 C-1.125 1.125 -1.125 1.125 0 0 Z " fill="#304154" transform="translate(277,327)"/>
    <path d="M0 0 C3.166 0.565 6.041 1.767 9 3 C9 3.33 9 3.66 9 4 C3.585 4.369 3.585 4.369 0.625 2.5 C0.089 2.005 -0.447 1.51 -1 1 C-0.67 0.67 -0.34 0.34 0 0 Z " fill="#B0B6BF" transform="translate(224,306)"/>
    <path d="M0 0 C0.99 0 1.98 0 3 0 C3 2.31 3 4.62 3 7 C2.67 7.165 2.67 7.165 1 8 C0.67 5.36 0.34 2.72 0 0 Z " fill="#6A7587" transform="translate(324,244)"/>
    <path d="M0 0 C2.31 0 4.62 0 7 0 C6.67 0.99 6.34 1.98 6 3 C4.02 3 2.04 3 0 3 C0 2.01 0 1.02 0 0 Z " fill="#F6F5F4" transform="translate(265,299)"/>
    <path d="M0 0 C0.66 0 1.32 0 2 0 C1.67 1.98 1.34 3.96 1 6 C0.01 6.33 -0.98 6.66 -2 7 C-1.125 2.25 -1.125 2.25 0 0 Z " fill="#CECFD6" transform="translate(177,246)"/>
    <path d="M0 0 C0.99 0 1.98 0 3 0 C3 1.98 3 3.96 3 6 C2.01 5.67 1.02 5.34 0 5 C0 3.35 0 1.7 0 0 Z " fill="#172B3F" transform="translate(275,333)"/>
    <path d="M0 0 C0 0.99 0 1.98 0 3 C-1.65 3.66 -3.3 4.32 -5 5 C-5 3.68 -5 2.36 -5 1 C-3.35 0.67 -1.7 0.34 0 0 Z " fill="#1E242F" transform="translate(281,309)"/>
    <path d="M0 0 C0.99 0.33 1.98 0.66 3 1 C2.505 1.495 2.505 1.495 0 4 C0.33 4.66 0.66 5.32 1 6 C-0.32 5.67 -1.64 5.34 -3 5 C-2.625 3.062 -2.625 3.062 -2 1 C-1.34 0.67 -0.68 0.34 0 0 Z " fill="#B7BEC9" transform="translate(248,164)"/>
  </g>
</svg>
