<svg xmlns="http://www.w3.org/2000/svg" width="1024" height="1024" viewBox="0 0 1024 1024">
  <defs>
    <radialGradient id="background" cx="35%" cy="25%" r="90%">
      <stop offset="0" stop-color="#26372b" />
      <stop offset="0.58" stop-color="#121a16" />
      <stop offset="1" stop-color="#090d0b" />
    </radialGradient>
    <linearGradient id="caffeine" x1="0" y1="0" x2="1" y2="1">
      <stop offset="0" stop-color="#d4ff71" />
      <stop offset="0.52" stop-color="#b8f34a" />
      <stop offset="1" stop-color="#84cf27" />
    </linearGradient>
    <filter id="glow" x="-30%" y="-30%" width="160%" height="160%">
      <feGaussianBlur stdDeviation="28" result="blur" />
      <feColorMatrix in="blur" type="matrix" values="0 0 0 0 0.45 0 0 0 0 0.95 0 0 0 0 0.14 0 0 0 .32 0" />
      <feMerge><feMergeNode /><feMergeNode in="SourceGraphic" /></feMerge>
    </filter>
  </defs>

  <rect width="1024" height="1024" rx="224" fill="url(#background)" />
  <circle cx="512" cy="530" r="335" fill="none" stroke="#b8f34a" stroke-opacity="0.07" stroke-width="2" />
  <circle cx="512" cy="530" r="268" fill="none" stroke="#b8f34a" stroke-opacity="0.08" stroke-width="2" stroke-dasharray="14 20" />

  <g filter="url(#glow)">
    <path d="M255 365c0-38 31-69 69-69h356c38 0 69 31 69 69v214c0 126-102 228-228 228h-38c-126 0-228-102-228-228V365Z" fill="url(#caffeine)" />
    <path d="M740 422h34c73 0 132 59 132 132s-59 132-132 132h-65" fill="none" stroke="#a9e83a" stroke-width="68" stroke-linecap="round" />
    <ellipse cx="502" cy="364" rx="247" ry="84" fill="#26391c" />
    <ellipse cx="502" cy="347" rx="226" ry="59" fill="#101713" />

    <path d="M438 490v176" stroke="#1a2813" stroke-width="17" stroke-linecap="round" />
    <path d="M385 529h106M385 573h106M385 617h106" stroke="#1a2813" stroke-width="15" stroke-linecap="round" />
  </g>

  <path d="M394 248c-38-49-27-91 12-135" fill="none" stroke="#b8f34a" stroke-opacity="0.78" stroke-width="25" stroke-linecap="round" />
  <path d="M518 238c-38-49-27-91 12-135" fill="none" stroke="#b8f34a" stroke-opacity="0.55" stroke-width="22" stroke-linecap="round" />
  <path d="M640 248c-38-49-27-91 12-135" fill="none" stroke="#b8f34a" stroke-opacity="0.34" stroke-width="19" stroke-linecap="round" />
</svg>
